PathFileType	4	(X/Y/Z)	TVC_32_BWA_06_walk_RCNL2025.trc
DataRate	CameraRate	NumFrames	NumMarkers	Units	OrigDataRate	OrigDataStartFrame	OrigNumFrames
100	100	9	27	mm	100	1	386
Frame#	Time	R_Shoulder			L_Shoulder			C7			J_Notch			R_Elbow			L_Elbow			R_Wrist			L_Wrist			R_Asis			L_Asis			R_Psis			L_Psis			Sacral			Thoracic			Sternum			R_Thigh_Lateral			R_Knee_Lateral			R_Shank_Lateral			R_Ankle_Lateral			R_Heel			R_Toe			L_Thigh_Lateral			L_Knee_Lateral			L_Shank_Lateral			L_Ankle_Lateral			L_Heel			L_Toe		
		X1	Y1	Z1	X2	Y2	Z2	X3	Y3	Z3	X4	Y4	Z4	X5	Y5	Z5	X6	Y6	Z6	X7	Y7	Z7	X8	Y8	Z8	X9	Y9	Z9	X10	Y10	Z10	X11	Y11	Z11	X12	Y12	Z12	X13	Y13	Z13	X14	Y14	Z14	X15	Y15	Z15	X16	Y16	Z16	X17	Y17	Z17	X18	Y18	Z18	X19	Y19	Z19	X20	Y20	Z20	X21	Y21	Z21	X22	Y22	Z22	X23	Y23	Z23	X24	Y24	Z24	X25	Y25	Z25	X26	Y26	Z26	X27	Y27	Z27
1	0.00000000	-1780.147095	1470.963135	524.026306	-1837.381836	1448.816040	154.778687	-1857.714355	1514.381958	348.112366	-1701.412598	1408.559570	337.955078	-1707.181763	1142.797241	667.213928	-1968.907593	1148.009766	58.761845	-1566.493530	911.959900	614.559387	-1937.161011	874.971741	54.249859	-1786.627197	1009.211975	499.603333	-1790.348022	1022.229492	214.568069	-1976.397583	1025.355835	408.527161	-1974.107300	1021.414001	306.834351	-1975.252441	1023.384918	357.680756	-1945.992676	1261.256226	362.216858	-1688.347656	1261.149292	340.752869	-1899.657959	628.525574	535.105225	-1880.342407	494.052765	464.501221	-1952.023438	294.033142	511.385620	-1986.075073	83.147560	427.193939	-2046.245972	58.954025	365.585419	-1844.895752	44.310734	418.809296	-1747.369141	697.344482	119.346596	-1658.947754	546.471008	169.604095	-1660.264404	385.470062	101.582153	-1553.176880	120.593529	147.575790	-1611.454712	88.994263	200.339890	-1408.927734	125.745819	167.092560
2	0.01000000	-1776.461060	1469.804565	523.499329	-1833.958496	1447.806641	154.276001	-1854.221069	1513.324951	347.635864	-1697.774414	1407.696899	337.441406	-1700.790039	1142.439697	666.388306	-1966.427368	1147.336792	58.858837	-1558.968018	912.299438	613.870880	-1935.963867	874.200256	55.002472	-1782.461426	1008.508789	499.471954	-1785.562500	1021.093933	214.267410	-1972.051514	1023.833862	407.863251	-1969.483887	1019.730835	306.218140	-1970.767700	1021.782349	357.040695	-1942.132446	1260.023193	361.435822	-1684.452271	1260.314331	340.265289	-1895.941040	627.829895	535.160706	-1877.056274	493.216003	464.430206	-1949.966553	293.666504	511.301544	-1985.838623	83.142548	427.068542	-2046.177856	59.125114	365.511688	-1844.849365	44.285774	418.753845	-1740.941528	696.399414	119.928612	-1652.993286	545.598145	170.509857	-1652.592285	384.892151	102.189560	-1544.661743	120.547249	148.485153	-1602.800781	88.422447	201.110031	-1400.413208	126.515053	168.484146
3	0.02000000	-1771.842285	1468.395386	522.802429	-1829.627441	1446.532593	153.621246	-1849.797729	1511.995483	346.997131	-1693.135376	1406.658691	336.758026	-1692.854248	1142.014893	665.346863	-1963.214355	1146.454590	58.967758	-1549.622437	912.760437	612.975098	-1934.260986	873.186707	55.924930	-1777.186646	1007.612793	499.333618	-1779.476318	1019.654480	213.873657	-1966.519531	1021.955444	407.009674	-1963.597778	1017.656372	305.429291	-1965.058655	1019.805908	356.219482	-1937.205078	1258.460693	360.444061	-1679.512695	1259.303467	339.638184	-1891.274170	626.951721	535.215942	-1872.919800	492.148895	464.319641	-1947.370483	293.201904	511.195190	-1985.540649	83.142838	426.932892	-2046.092773	59.366116	365.432220	-1844.795044	44.252930	418.687592	-1732.892212	695.213013	120.586479	-1645.524902	544.470215	171.554108	-1643.107422	384.129395	102.889626	-1534.430176	120.303200	149.599258	-1592.509521	87.614456	201.967972	-1390.236328	127.131813	170.328949
4	0.03000000	-1766.474609	1466.817139	521.947571	-1824.546021	1445.044434	152.829117	-1844.605469	1510.448975	346.200348	-1687.658325	1405.488770	335.918610	-1683.751099	1141.552002	664.130188	-1959.342407	1145.378540	59.080742	-1538.900085	913.336456	611.890076	-1932.012207	871.953674	56.963368	-1770.993652	1006.554932	499.198364	-1772.285889	1017.965515	213.398270	-1959.989624	1019.819092	405.992706	-1956.649170	1015.303467	304.490356	-1958.319397	1017.561279	355.241531	-1931.371460	1256.628906	359.277649	-1673.696655	1258.173706	338.884979	-1885.852661	625.927856	535.256531	-1868.109741	490.898987	464.180084	-1944.340210	292.661591	511.067566	-1985.190796	83.155739	426.800140	-2045.994507	59.682732	365.359375	-1844.737427	44.213467	418.615234	-1723.569092	693.829712	121.254860	-1636.857056	543.118835	172.645798	-1632.304077	383.188263	103.617203	-1523.144287	119.773483	150.858292	-1581.302856	86.554176	202.820267	-1379.078979	127.385895	172.593399
5	0.04000000	-1760.570068	1465.161865	520.953186	-1818.904419	1443.406494	151.918762	-1838.839233	1508.753784	345.256073	-1681.553589	1404.231323	334.944092	-1673.920044	1141.083008	662.788879	-1954.906982	1144.131958	59.191914	-1527.315369	914.012329	610.642120	-1929.204895	870.537994	58.056832	-1764.112305	1005.374146	499.064178	-1764.234619	1016.098328	212.859390	-1952.697632	1017.540100	404.846863	-1948.889648	1012.804810	303.429321	-1950.793640	1015.172455	354.138092	-1924.834961	1254.604004	357.982117	-1667.205078	1256.984741	338.019928	-1879.911865	624.805237	535.265625	-1862.845703	489.531281	464.037018	-1941.010620	292.078491	510.920532	-1984.800171	83.192497	426.681396	-2045.887573	60.081547	365.306274	-1844.682495	44.169426	418.541443	-1713.385254	692.300598	121.868385	-1627.372192	541.588867	173.688950	-1620.764648	382.072540	104.307228	-1511.533569	118.885017	152.189514	-1569.952881	85.234108	203.579559	-1367.676147	127.082512	175.205994
6	0.05000000	-1754.316162	1463.513184	519.837097	-1812.875122	1441.681641	150.907104	-1832.676270	1506.975830	344.177277	-1675.034058	1402.931030	333.848328	-1663.764648	1140.635132	661.376221	-1949.994385	1142.738892	59.296104	-1515.335938	914.772919	609.259583	-1925.845581	868.978607	59.151751	-1756.750854	1004.107788	498.913696	-1755.552734	1014.124329	212.277283	-1944.865112	1015.224487	403.604584	-1940.557983	1010.281860	302.270844	-1942.711548	1012.753174	352.937714	-1917.787231	1252.461182	356.599884	-1660.221680	1255.787598	337.055939	-1873.671631	623.630432	535.225403	-1857.331787	488.108521	463.915131	-1937.516357	291.490509	510.755920	-1984.379028	83.268166	426.585144	-2045.774902	60.572727	365.283661	-1844.636353	44.123039	418.469757	-1702.718872	690.671265	122.374672	-1617.435791	539.921875	174.601868	-1609.033691	380.773926	104.912216	-1500.252808	117.589233	153.520660	-1559.122070	83.650360	204.190445	-1356.666382	126.075569	178.063538
7	0.06000000	-1747.852783	1461.935913	518.613403	-1806.588013	1439.921143	149.808289	-1826.252441	1505.169434	342.978760	-1668.279663	1401.632568	332.634949	-1653.607300	1140.227173	659.947388	-1944.672485	1141.222168	59.385887	-1503.328552	915.607605	607.770691	-1921.947083	867.309479	60.206497	-1749.068848	1002.785767	498.714264	-1746.420898	1012.105225	211.668991	-1936.670654	1012.956665	402.290802	-1931.848633	1007.828979	301.031982	-1934.259644	1010.392822	351.661392	-1910.382324	1250.264893	355.162750	-1652.892334	1254.621216	336.007477	-1867.307007	622.444763	535.117859	-1851.722412	486.678284	463.821808	-1933.971313	290.935303	510.575531	-1983.935425	83.401360	426.518585	-2045.657104	61.171215	365.297913	-1844.603271	44.076096	418.402527	-1691.869507	688.975769	122.739456	-1607.352295	538.142944	175.327484	-1597.562500	379.271118	105.408028	-1489.813721	115.859406	154.796204	-1549.294312	81.802139	204.643600	-1346.528076	124.279594	181.037766
8	0.07000000	-1741.270874	1460.473633	517.293213	-1800.125000	1438.161987	148.634796	-1819.657349	1503.376709	341.677643	-1661.400757	1400.380981	331.306946	-1643.676880	1139.869263	658.554382	-1938.991455	1139.604004	59.450230	-1491.547241	916.507629	606.203461	-1917.520752	865.558716	61.190466	-1741.170410	1001.429443	498.421326	-1736.955078	1010.095032	211.040924	-1928.242554	1010.796570	400.920197	-1922.901855	1005.510071	299.719757	-1925.572205	1008.153320	350.319977	-1902.728149	1248.065308	353.689209	-1645.320190	1253.512573	334.891632	-1860.939697	621.283081	534.926636	-1846.113159	485.271545	463.746979	-1930.456665	290.446655	510.383606	-1983.474243	83.613625	426.488770	-2045.531738	61.897102	365.350586	-1844.585083	44.029644	418.341888	-1681.051270	687.235962	122.946266	-1597.354980	536.257446	175.834564	-1586.694458	377.535339	105.790436	-1480.561890	113.684486	155.988037	-1540.765381	79.694588	204.978302	-1337.570068	121.667992	183.985199
9	0.08000000	-1734.619995	1459.151001	515.886902	-1793.528076	1436.428589	147.396133	-1812.939331	1501.628540	340.293152	-1654.427979	1399.216675	329.879395	-1634.112183	1139.562622	657.234436	-1932.983276	1137.906372	59.475674	-1480.145386	917.459259	604.585052	-1912.573059	863.750183	62.082069	-1733.112671	1000.054016	497.988312	-1727.220215	1008.144958	210.383621	-1919.662598	1008.782593	399.495728	-1913.807617	1003.362915	298.331818	-1916.735107	1006.072754	348.913773	-1894.890381	1245.897705	352.185822	-1637.567749	1252.479004	333.726776	-1854.638794	620.175171	534.640869	-1840.550781	483.911804	463.675323	-1927.017334	290.054230	510.188660	-1982.996216	83.928123	426.503510	-2045.394287	62.774860	365.441345	-1844.581299	43.984406	418.290894	-1670.408325	685.461853	122.992912	-1587.612915	534.255371	176.113510	-1576.667725	375.538208	106.068878	-1472.685547	111.068871	157.090866	-1533.661377	77.341408	205.269669	-1329.950928	118.262741	186.760117
